<svg xmlns="http://www.w3.org/2000/svg" width="1366.262" height="341.645" viewBox="0 0 1366.262 341.645">
  <polygon points="197.031 0.295 394.062 0.295 295.547 170.929 197.031 341.563 98.516 170.929 0 0.295 197.031 0.295" fill="#aa3030"/>
  <g>
    <path d="M120.988,123.444H109.906v10.279h12.35v3.088h-16.03V108.3h15.4v3.088H109.906V120.4h11.082Z" transform="translate(0.262 0)" fill="#f2f2f3"/>
    <path d="M126.907,121.879c0-2.114-.042-3.849-.169-5.54H130l.169,3.3h.127a7.055,7.055,0,0,1,6.429-3.764,6.052,6.052,0,0,1,5.795,4.1h.085a8.429,8.429,0,0,1,2.283-2.664,6.984,6.984,0,0,1,4.526-1.438c2.707,0,6.726,1.776,6.726,8.882v12.055H152.5v-11.59c0-3.933-1.438-6.3-4.441-6.3a4.818,4.818,0,0,0-4.4,3.384,6.131,6.131,0,0,0-.3,1.861v12.647h-3.638V124.544c0-3.256-1.438-5.625-4.272-5.625a5.551,5.551,0,0,0-4.907,5.541v12.351h-3.637Z" transform="translate(0.262 0)" fill="#f2f2f3"/>
    <path d="M162.18,123.021c0-2.622-.085-4.737-.169-6.682h3.342l.168,3.51h.085a8.049,8.049,0,0,1,7.275-3.975c4.949,0,8.671,4.187,8.671,10.4,0,7.36-4.483,11-9.3,11a7.182,7.182,0,0,1-6.3-3.215h-.084v11.125h-3.68Zm3.68,5.457a8.334,8.334,0,0,0,.169,1.522,5.743,5.743,0,0,0,5.583,4.357c3.934,0,6.218-3.214,6.218-7.909,0-4.1-2.157-7.614-6.091-7.614a5.939,5.939,0,0,0-5.625,4.61,6.044,6.044,0,0,0-.254,1.523Z" transform="translate(0.262 0)" fill="#f2f2f3"/>
    <path d="M197.58,136.811l-.3-2.581h-.127a7.625,7.625,0,0,1-6.261,3.046c-4.145,0-6.259-2.919-6.259-5.88,0-4.948,4.4-7.655,12.308-7.613v-.423c0-1.692-.465-4.737-4.653-4.737a10.2,10.2,0,0,0-5.329,1.523l-.846-2.454a12.7,12.7,0,0,1,6.725-1.818c6.261,0,7.783,4.272,7.783,8.374V131.9a28.809,28.809,0,0,0,.338,4.907Zm-.55-10.448c-4.061-.085-8.671.635-8.671,4.611a3.293,3.293,0,0,0,3.511,3.552,5.094,5.094,0,0,0,4.948-3.425,3.887,3.887,0,0,0,.212-1.185Z" transform="translate(0.262 0)" fill="#f2f2f3"/>
    <path d="M210.944,110.459v5.88h5.329v2.833h-5.329v11.04c0,2.538.719,3.976,2.791,3.976a8.337,8.337,0,0,0,2.158-.253l.169,2.791a9.115,9.115,0,0,1-3.3.507,5.157,5.157,0,0,1-4.019-1.565c-1.057-1.1-1.438-2.918-1.438-5.329V119.172h-3.172v-2.833h3.172v-4.907Z" transform="translate(0.262 0)" fill="#f2f2f3"/>
    <path d="M220.459,106.779h3.723v12.774h.084a6.906,6.906,0,0,1,2.665-2.622,7.652,7.652,0,0,1,3.806-1.057c2.75,0,7.149,1.691,7.149,8.755v12.182h-3.722V125.052c0-3.3-1.227-6.091-4.738-6.091a5.349,5.349,0,0,0-4.991,3.722,4.52,4.52,0,0,0-.253,1.777v12.351h-3.723Z" transform="translate(0.262 0)" fill="#f2f2f3"/>
    <path d="M248.077,110.586a2.305,2.305,0,0,1-4.61,0,2.267,2.267,0,0,1,2.326-2.326A2.209,2.209,0,0,1,248.077,110.586Zm-4.145,26.225V116.339h3.722v20.472Z" transform="translate(0.262 0)" fill="#f2f2f3"/>
    <path d="M251.5,134.653l9.263-12.054c.888-1.1,1.735-2.073,2.665-3.173v-.084H252.348v-3h15.608l-.042,2.326-9.137,11.886c-.846,1.141-1.692,2.157-2.622,3.214v.085h11.97v2.961H251.5Z" transform="translate(0.262 0)" fill="#f2f2f3"/>
    <path d="M273.707,127.251c.084,5.034,3.3,7.106,7.021,7.106A13.464,13.464,0,0,0,286.4,133.3l.634,2.665a16.581,16.581,0,0,1-6.809,1.268c-6.3,0-10.067-4.145-10.067-10.32s3.637-11.039,9.6-11.039c6.683,0,8.46,5.879,8.46,9.643a14.085,14.085,0,0,1-.127,1.734Zm10.912-2.665c.043-2.368-.973-6.048-5.16-6.048-3.764,0-5.414,3.468-5.71,6.048Z" transform="translate(0.262 0)" fill="#f2f2f3"/>
  </g>
  <polygon points="441.194 341.268 244.163 341.268 342.678 170.634 441.194 0 539.709 170.634 638.225 341.268 441.194 341.268" fill="#aa3030"/>
  <g>
    <path d="M385.554,215.454a52.759,52.759,0,0,1,7.825-.592c5.287,0,9.052,1.227,11.547,3.553,2.538,2.326,4.018,5.626,4.018,10.236,0,4.653-1.438,8.459-4.1,11.082-2.665,2.664-7.064,4.1-12.6,4.1a59.513,59.513,0,0,1-6.683-.338Zm3.68,25.21a23.269,23.269,0,0,0,3.722.211c7.867,0,12.139-4.4,12.139-12.1.043-6.725-3.764-11-11.547-11a20.953,20.953,0,0,0-4.314.38Z" transform="translate(0.262 0)" fill="#f2f2f3"/>
    <path d="M415.835,234.023c.085,5.033,3.3,7.106,7.022,7.106a13.45,13.45,0,0,0,5.668-1.058l.634,2.665a16.582,16.582,0,0,1-6.809,1.269c-6.3,0-10.067-4.145-10.067-10.32s3.637-11.04,9.6-11.04c6.683,0,8.46,5.879,8.46,9.644a14.1,14.1,0,0,1-.127,1.734Zm10.913-2.665c.043-2.369-.973-6.048-5.16-6.048-3.764,0-5.414,3.468-5.71,6.048Z" transform="translate(0.262 0)" fill="#f2f2f3"/>
    <path d="M435.333,243.582V225.944h-2.876V223.11h2.876v-1.1c0-5.414,3.172-8.925,8.924-8.925a10.25,10.25,0,0,1,5.2,1.354l-1.058,2.834a7.826,7.826,0,0,0-4.314-1.184c-3.934,0-5.075,2.749-5.075,6.006v1.015H450.9v20.472h-3.68V225.944h-8.205v17.638Z" transform="translate(0.262 0)" fill="#f2f2f3"/>
    <path d="M457.071,228.651c0-2.115-.042-3.849-.169-5.541h3.3l.212,3.384h.084a7.528,7.528,0,0,1,6.768-3.849c2.834,0,7.233,1.692,7.233,8.713v12.224h-3.723v-11.8c0-3.3-1.226-6.049-4.737-6.049a5.29,5.29,0,0,0-4.991,3.807,5.356,5.356,0,0,0-.254,1.734v12.309h-3.722Z" transform="translate(0.262 0)" fill="#f2f2f3"/>
    <path d="M482.616,234.023c.085,5.033,3.3,7.106,7.022,7.106a13.45,13.45,0,0,0,5.668-1.058l.634,2.665a16.583,16.583,0,0,1-6.81,1.269c-6.3,0-10.067-4.145-10.067-10.32s3.638-11.04,9.6-11.04c6.683,0,8.46,5.879,8.46,9.644a14.1,14.1,0,0,1-.127,1.734Zm10.913-2.665c.042-2.369-.973-6.048-5.16-6.048-3.765,0-5.414,3.468-5.71,6.048Z" transform="translate(0.262 0)" fill="#f2f2f3"/>
  </g>
  <polygon points="683.131 0.377 880.162 0.377 781.646 171.011 683.131 341.645 584.615 171.011 486.1 0.377 683.131 0.377" fill="#aa3030"/>
  <g>
    <path d="M634.633,108.365v28.508h-3.68V108.365Z" transform="translate(0.262 0)" fill="#f2f2f3"/>
    <path d="M658.614,106.842v24.744c0,1.819.043,3.891.17,5.287h-3.342l-.169-3.553h-.085a7.57,7.57,0,0,1-6.978,4.018c-4.949,0-8.756-4.187-8.756-10.4-.042-6.81,4.188-11,9.179-11a6.844,6.844,0,0,1,6.175,3.13h.085V106.842Zm-3.721,17.892a6.565,6.565,0,0,0-.169-1.565,5.474,5.474,0,0,0-5.372-4.315c-3.849,0-6.133,3.384-6.133,7.91,0,4.145,2.03,7.571,6.048,7.571a5.6,5.6,0,0,0,5.457-4.441,6.461,6.461,0,0,0,.169-1.607Z" transform="translate(0.262 0)" fill="#f2f2f3"/>
    <path d="M666.86,127.314c.085,5.033,3.3,7.106,7.022,7.106a13.446,13.446,0,0,0,5.668-1.058l.635,2.665a16.593,16.593,0,0,1-6.811,1.269c-6.3,0-10.066-4.145-10.066-10.32s3.637-11.04,9.6-11.04c6.683,0,8.459,5.879,8.459,9.644a13.9,13.9,0,0,1-.127,1.734Zm10.913-2.665c.042-2.369-.972-6.048-5.16-6.048-3.764,0-5.414,3.468-5.711,6.048Z" transform="translate(0.262 0)" fill="#f2f2f3"/>
    <path d="M697.312,136.873l-.3-2.58h-.127a7.625,7.625,0,0,1-6.26,3.045c-4.145,0-6.26-2.918-6.26-5.879,0-4.949,4.4-7.656,12.309-7.613v-.424c0-1.692-.466-4.737-4.653-4.737a10.2,10.2,0,0,0-5.33,1.523l-.845-2.453a12.7,12.7,0,0,1,6.725-1.819c6.26,0,7.782,4.272,7.782,8.375v7.656a28.8,28.8,0,0,0,.339,4.906Zm-.55-10.447c-4.061-.085-8.671.634-8.671,4.61a3.294,3.294,0,0,0,3.511,3.553,5.093,5.093,0,0,0,4.949-3.426,3.884,3.884,0,0,0,.211-1.184Z" transform="translate(0.262 0)" fill="#f2f2f3"/>
    <path d="M710.676,110.522V116.4h5.329v2.834h-5.329v11.039c0,2.538.719,3.976,2.792,3.976a8.29,8.29,0,0,0,2.157-.253l.169,2.792a9.143,9.143,0,0,1-3.3.507,5.156,5.156,0,0,1-4.017-1.565c-1.058-1.1-1.439-2.919-1.439-5.33V119.235h-3.172V116.4h3.172V111.5Z" transform="translate(0.262 0)" fill="#f2f2f3"/>
    <path d="M722.01,127.314c.085,5.033,3.3,7.106,7.021,7.106a13.443,13.443,0,0,0,5.668-1.058l.635,2.665a16.593,16.593,0,0,1-6.811,1.269c-6.3,0-10.066-4.145-10.066-10.32s3.638-11.04,9.6-11.04c6.682,0,8.459,5.879,8.459,9.644a13.9,13.9,0,0,1-.127,1.734Zm10.913-2.665c.042-2.369-.973-6.048-5.16-6.048-3.765,0-5.414,3.468-5.711,6.048Z" transform="translate(0.262 0)" fill="#f2f2f3"/>
  </g>
  <polygon points="927.294 341.349 730.262 341.349 828.778 170.715 927.294 0.081 1025.809 170.715 1124.325 341.349 927.294 341.349" fill="#aa3030"/>
  <g>
    <path d="M842.741,215.475a42.556,42.556,0,0,1,7.064-.55c3.637,0,6.3.846,7.994,2.368a7.665,7.665,0,0,1,2.5,5.964,8.392,8.392,0,0,1-2.2,6.091c-1.946,2.072-5.118,3.13-8.713,3.13a12.638,12.638,0,0,1-2.961-.254v11.421h-3.68Zm3.68,13.746a12.313,12.313,0,0,0,3.045.3c4.441,0,7.148-2.157,7.148-6.091,0-3.764-2.664-5.583-6.724-5.583a15.461,15.461,0,0,0-3.469.3Z" transform="translate(0.262 0)" fill="#f2f2f3"/>
    <path d="M864.438,229.56c0-2.412-.042-4.484-.168-6.387h3.256l.127,4.018h.169a6.141,6.141,0,0,1,5.668-4.483,4.047,4.047,0,0,1,1.057.126v3.511a5.562,5.562,0,0,0-1.269-.127c-2.622,0-4.483,1.988-4.991,4.78a10.527,10.527,0,0,0-.169,1.734v10.913h-3.68Z" transform="translate(0.262 0)" fill="#f2f2f3"/>
    <path d="M896.371,233.239c0,7.572-5.245,10.871-10.194,10.871-5.541,0-9.813-4.061-9.813-10.532,0-6.852,4.484-10.87,10.152-10.87C892.4,222.708,896.371,226.979,896.371,233.239Zm-16.242.212c0,4.484,2.58,7.867,6.218,7.867,3.552,0,6.217-3.341,6.217-7.952,0-3.468-1.734-7.867-6.133-7.867S880.129,229.56,880.129,233.451Z" transform="translate(0.262 0)" fill="#f2f2f3"/>
    <path d="M905.548,217.293v5.88h5.329v2.833h-5.329v11.04c0,2.538.719,3.976,2.792,3.976a8.32,8.32,0,0,0,2.156-.253l.17,2.791a9.121,9.121,0,0,1-3.3.507,5.152,5.152,0,0,1-4.017-1.565c-1.058-1.1-1.439-2.918-1.439-5.329V226.006h-3.172v-2.833h3.172v-4.907Z" transform="translate(0.262 0)" fill="#f2f2f3"/>
    <path d="M933.336,233.239c0,7.572-5.245,10.871-10.194,10.871-5.541,0-9.813-4.061-9.813-10.532,0-6.852,4.483-10.87,10.151-10.87C929.359,222.708,933.336,226.979,933.336,233.239Zm-16.242.212c0,4.484,2.58,7.867,6.218,7.867,3.552,0,6.217-3.341,6.217-7.952,0-3.468-1.734-7.867-6.133-7.867S917.094,229.56,917.094,233.451Z" transform="translate(0.262 0)" fill="#f2f2f3"/>
    <path d="M942.512,217.293v5.88h5.329v2.833h-5.329v11.04c0,2.538.718,3.976,2.792,3.976a8.335,8.335,0,0,0,2.157-.253l.169,2.791a9.121,9.121,0,0,1-3.3.507,5.156,5.156,0,0,1-4.018-1.565c-1.057-1.1-1.438-2.918-1.438-5.329V226.006H935.7v-2.833h3.172v-4.907Z" transform="translate(0.262 0)" fill="#f2f2f3"/>
    <path d="M953.761,223.173l4.483,12.1c.465,1.353.973,2.96,1.312,4.187h.084c.381-1.227.8-2.791,1.311-4.272l4.061-12.012h3.933l-5.583,14.592c-2.665,7.022-4.483,10.617-7.021,12.816a10.093,10.093,0,0,1-4.569,2.411l-.93-3.13a9.845,9.845,0,0,0,3.257-1.819,11.276,11.276,0,0,0,3.13-4.145,2.666,2.666,0,0,0,.3-.888,3.256,3.256,0,0,0-.254-.973L949.7,223.173Z" transform="translate(0.262 0)" fill="#f2f2f3"/>
    <path d="M972.327,229.855c0-2.622-.085-4.737-.169-6.682H975.5l.169,3.51h.085a8.048,8.048,0,0,1,7.275-3.975c4.949,0,8.671,4.187,8.671,10.4,0,7.36-4.483,11-9.3,11a7.179,7.179,0,0,1-6.3-3.215h-.085V252.02h-3.68Zm3.68,5.457a8.423,8.423,0,0,0,.169,1.522,5.744,5.744,0,0,0,5.584,4.357c3.933,0,6.217-3.214,6.217-7.909,0-4.1-2.157-7.614-6.091-7.614a5.939,5.939,0,0,0-5.625,4.61,6.044,6.044,0,0,0-.254,1.523Z" transform="translate(0.262 0)" fill="#f2f2f3"/>
    <path d="M998.464,234.085c.085,5.034,3.3,7.106,7.021,7.106a13.461,13.461,0,0,0,5.668-1.057l.635,2.665a16.591,16.591,0,0,1-6.81,1.268c-6.3,0-10.067-4.145-10.067-10.32s3.638-11.039,9.6-11.039c6.682,0,8.459,5.879,8.459,9.643a13.887,13.887,0,0,1-.127,1.734Zm10.913-2.665c.042-2.368-.973-6.048-5.16-6.048-3.765,0-5.414,3.468-5.711,6.048Z" transform="translate(0.262 0)" fill="#f2f2f3"/>
  </g>
  <polygon points="1169.231 0 1366.262 0 1267.747 170.634 1169.231 341.268 1070.716 170.634 972.2 0 1169.231 0" fill="#aa3030"/>
  <g>
    <path d="M1143.059,112.2h-8.671v-3.13h21.106v3.13h-8.714V137.58h-3.721Z" transform="translate(0.262 0)" fill="#f2f2f3"/>
    <path d="M1157.606,128.021c.085,5.033,3.3,7.106,7.022,7.106a13.446,13.446,0,0,0,5.668-1.058l.635,2.665A16.593,16.593,0,0,1,1164.12,138c-6.3,0-10.066-4.145-10.066-10.32s3.637-11.04,9.6-11.04c6.683,0,8.459,5.879,8.459,9.644a13.9,13.9,0,0,1-.127,1.734Zm10.914-2.665c.042-2.369-.973-6.048-5.161-6.048-3.764,0-5.414,3.468-5.711,6.048Z" transform="translate(0.262 0)" fill="#f2f2f3"/>
    <path d="M1176.216,133.773a9.755,9.755,0,0,0,4.906,1.481c2.707,0,3.977-1.354,3.977-3.046,0-1.776-1.058-2.749-3.807-3.764-3.681-1.311-5.414-3.341-5.414-5.795,0-3.3,2.664-6.006,7.063-6.006a10.22,10.22,0,0,1,5.034,1.269l-.931,2.707a7.965,7.965,0,0,0-4.188-1.184c-2.2,0-3.425,1.269-3.425,2.791,0,1.692,1.226,2.453,3.891,3.468,3.553,1.354,5.371,3.131,5.371,6.176,0,3.595-2.791,6.133-7.655,6.133a11.678,11.678,0,0,1-5.753-1.4Z" transform="translate(0.262 0)" fill="#f2f2f3"/>
    <path d="M1197.955,111.229v5.879h5.329v2.834h-5.329v11.039c0,2.539.719,3.977,2.792,3.977a8.275,8.275,0,0,0,2.157-.254l.169,2.792a9.117,9.117,0,0,1-3.3.507,5.157,5.157,0,0,1-4.017-1.565c-1.058-1.1-1.439-2.918-1.439-5.33V119.942h-3.171v-2.834h3.171V112.2Z" transform="translate(0.262 0)" fill="#f2f2f3"/>
  </g>
</svg>
