<svg xmlns="http://www.w3.org/2000/svg" width="990.924" height="280" viewBox="0 0 990.924 280">
  <polygon points="472.739 0 516.04 0 494.389 35 472.739 70 451.088 35 429.438 0 472.739 0" fill="#403030" opacity="0.6"/>
  <polygon points="559.223 0 602.524 0 580.873 35 559.223 70 537.572 35 515.921 0 559.223 0" fill="#403030" opacity="0.6"/>
  <polygon points="645.19 0 688.492 0 666.841 35 645.19 70 623.54 35 601.889 0 645.19 0" fill="#703030" opacity="0.6"/>
  <polygon points="731.19 0 774.492 0 752.841 35 731.19 70 709.54 35 687.889 0 731.19 0" fill="#703030" opacity="0.6"/>
  <polygon points="817.19 0 860.492 0 838.841 35 817.19 70 795.54 35 773.889 0 817.19 0" fill="#bc3030" opacity="0.6"/>
  <polygon points="429.84 70 473.141 70 451.49 35 429.84 0 408.189 35 386.538 70 429.84 70" fill="#403030" opacity="0.6"/>
  <polygon points="516.065 70 559.367 70 537.716 35 516.065 0 494.415 35 472.764 70 516.065 70" fill="#403030" opacity="0.6"/>
  <polygon points="602.549 70 645.851 70 624.2 35 602.549 0 580.899 35 559.248 70 602.549 70" fill="#703030" opacity="0.6"/>
  <polygon points="688.517 70 731.818 70 710.168 35 688.517 0 666.866 35 645.216 70 688.517 70" fill="#703030" opacity="0.6"/>
  <polygon points="774.517 70 817.818 70 796.168 35 774.517 0 752.866 35 731.216 70 774.517 70" fill="#bc3030" opacity="0.6"/>
  <polygon points="860.517 70 903.818 70 882.168 35 860.517 0 838.866 35 817.216 70 860.517 70" fill="#bc3030" opacity="0.6"/>
  <polygon points="343.999 70 387.3 70 365.649 105 343.999 140 322.348 105 300.698 70 343.999 70" fill="#403030" opacity="0.6"/>
  <polygon points="430.176 70 473.478 70 451.827 105 430.176 140 408.526 105 386.875 70 430.176 70" fill="#403030" opacity="0.6"/>
  <polygon points="516.402 70 559.703 70 538.053 105 516.402 140 494.751 105 473.101 70 516.402 70" fill="#703030" opacity="0.6"/>
  <polygon points="602.886 70 646.187 70 624.537 105 602.886 140 581.235 105 559.585 70 602.886 70" fill="#703030" opacity="0.6"/>
  <polygon points="688.854 70 732.155 70 710.504 105 688.854 140 667.203 105 645.552 70 688.854 70" fill="#703030" opacity="0.6"/>
  <polygon points="774.854 70 818.155 70 796.504 105 774.854 140 753.203 105 731.552 70 774.854 70" fill="#bc3030" opacity="0.6"/>
  <polygon points="860.854 70 904.155 70 882.504 105 860.854 140 839.203 105 817.552 70 860.854 70" fill="#bc3030" opacity="0.6"/>
  <polygon points="903.854 0 947.155 0 925.504 35 903.854 70 882.203 35 860.552 0 903.854 0" fill="#bc3030" opacity="0.6"/>
  <polygon points="301.269 140 344.57 140 322.92 105 301.269 70 279.618 105 257.968 140 301.269 140" fill="#403030" opacity="0.6"/>
  <polygon points="387.325 140 430.627 140 408.976 105 387.325 70 365.675 105 344.024 140 387.325 140" fill="#403030" opacity="0.6"/>
  <polygon points="473.503 140 516.804 140 495.154 105 473.503 70 451.852 105 430.202 140 473.503 140" fill="#703030" opacity="0.6"/>
  <polygon points="559.729 140 603.03 140 581.379 105 559.729 70 538.078 105 516.427 140 559.729 140" fill="#703030" opacity="0.6"/>
  <polygon points="646.213 140 689.514 140 667.863 105 646.213 70 624.562 105 602.911 140 646.213 140" fill="#703030" opacity="0.6"/>
  <polygon points="732.18 140 775.482 140 753.831 105 732.18 70 710.53 105 688.879 140 732.18 140" fill="#bc3030" opacity="0.6"/>
  <polygon points="818.18 140 861.482 140 839.831 105 818.18 70 796.53 105 774.879 140 818.18 140" fill="#bc3030" opacity="0.6"/>
  <polygon points="904.18 140 947.482 140 925.831 105 904.18 70 882.53 105 860.879 140 904.18 140" fill="#bc3030" opacity="0.6"/>
  <polygon points="214.279 140 257.58 140 235.93 175 214.279 210 192.628 175 170.978 140 214.279 140" fill="#403030" opacity="0.6"/>
  <polygon points="300.336 140 343.637 140 321.986 175 300.336 210 278.685 175 257.034 140 300.336 140" fill="#403030" opacity="0.6"/>
  <polygon points="386.513 140 429.814 140 408.164 175 386.513 210 364.862 175 343.212 140 386.513 140" fill="#703030" opacity="0.6"/>
  <polygon points="472.739 140 516.04 140 494.389 175 472.739 210 451.088 175 429.438 140 472.739 140" fill="#703030" opacity="0.6"/>
  <polygon points="559.223 140 602.524 140 580.873 175 559.223 210 537.572 175 515.921 140 559.223 140" fill="#703030" opacity="0.6"/>
  <polygon points="645.19 140 688.492 140 666.841 175 645.19 210 623.54 175 601.889 140 645.19 140" fill="#bc3030" opacity="0.6"/>
  <polygon points="731.19 140 774.492 140 752.841 175 731.19 210 709.54 175 687.889 140 731.19 140" fill="#bc3030" opacity="0.6"/>
  <polygon points="817.19 140 860.492 140 838.841 175 817.19 210 795.54 175 773.889 140 817.19 140" fill="#bc3030" opacity="0.6"/>
  <polygon points="171.606 210 214.907 210 193.256 175 171.606 140 149.955 175 128.304 210 171.606 210" fill="#403030" opacity="0.6"/>
  <polygon points="257.606 210 300.907 210 279.256 175 257.606 140 235.955 175 214.304 210 257.606 210" fill="#403030" opacity="0.6"/>
  <polygon points="343.662 210 386.963 210 365.313 175 343.662 140 322.012 175 300.361 210 343.662 210" fill="#703030" opacity="0.6"/>
  <polygon points="429.84 210 473.141 210 451.49 175 429.84 140 408.189 175 386.538 210 429.84 210" fill="#703030" opacity="0.6"/>
  <polygon points="516.065 210 559.367 210 537.716 175 516.065 140 494.415 175 472.764 210 516.065 210" fill="#703030" opacity="0.6"/>
  <polygon points="602.549 210 645.851 210 624.2 175 602.549 140 580.899 175 559.248 210 602.549 210" fill="#703030" opacity="0.6"/>
  <polygon points="688.517 210 731.818 210 710.168 175 688.517 140 666.866 175 645.216 210 688.517 210" fill="#bc3030" opacity="0.6"/>
  <polygon points="774.517 210 817.818 210 796.168 175 774.517 140 752.866 175 731.216 210 774.517 210" fill="#bc3030" opacity="0.6"/>
  <polygon points="860.517 210 903.818 210 882.168 175 860.517 140 838.866 175 817.216 210 860.517 210" fill="#bc3030" opacity="0.6"/>
  <polygon points="85.942 210 129.244 210 107.593 245 85.942 280 64.292 245 42.641 210 85.942 210" fill="#403030" opacity="0.6"/>
  <polygon points="171.942 210 215.244 210 193.593 245 171.942 280 150.292 245 128.641 210 171.942 210" fill="#403030" opacity="0.6"/>
  <polygon points="257.942 210 301.244 210 279.593 245 257.942 280 236.292 245 214.641 210 257.942 210" fill="#703030" opacity="0.6"/>
  <polygon points="343.999 210 387.3 210 365.649 245 343.999 280 322.348 245 300.698 210 343.999 210" fill="#703030" opacity="0.6"/>
  <polygon points="430.176 210 473.478 210 451.827 245 430.176 280 408.526 245 386.875 210 430.176 210" fill="#703030" opacity="0.6"/>
  <polygon points="516.402 210 559.703 210 538.053 245 516.402 280 494.751 245 473.101 210 516.402 210" fill="#703030" opacity="0.6"/>
  <polygon points="602.886 210 646.187 210 624.537 245 602.886 280 581.235 245 559.585 210 602.886 210" fill="#bc3030" opacity="0.6"/>
  <polygon points="688.854 210 732.155 210 710.504 245 688.854 280 667.203 245 645.552 210 688.854 210" fill="#bc3030" opacity="0.6"/>
  <polygon points="774.854 210 818.155 210 796.504 245 774.854 280 753.203 245 731.552 210 774.854 210" fill="#bc3030" opacity="0.6"/>
  <polygon points="860.854 210 904.155 210 882.504 245 860.854 280 839.203 245 817.552 210 860.854 210" fill="#bc3030" opacity="0.6"/>
  <polygon points="903.854 140 947.155 140 925.504 175 903.854 210 882.203 175 860.552 140 903.854 140" fill="#bc3030" opacity="0.6"/>
  <polygon points="43.301 280 86.603 280 64.952 245 43.301 210 21.651 245 0 280 43.301 280" fill="#403030" opacity="0.6"/>
  <polygon points="129.269 280 172.57 280 150.92 245 129.269 210 107.618 245 85.968 280 129.269 280" fill="#703030" opacity="0.6"/>
  <polygon points="215.269 280 258.57 280 236.92 245 215.269 210 193.618 245 171.968 280 215.269 280" fill="#703030" opacity="0.6"/>
  <polygon points="301.269 280 344.57 280 322.92 245 301.269 210 279.618 245 257.968 280 301.269 280" fill="#703030" opacity="0.6"/>
  <polygon points="387.325 280 430.627 280 408.976 245 387.325 210 365.675 245 344.024 280 387.325 280" fill="#703030" opacity="0.6"/>
  <polygon points="473.503 280 516.804 280 495.154 245 473.503 210 451.852 245 430.202 280 473.503 280" fill="#703030" opacity="0.6"/>
  <polygon points="559.729 280 603.03 280 581.379 245 559.729 210 538.078 245 516.427 280 559.729 280" fill="#bc3030" opacity="0.6"/>
  <polygon points="646.213 280 689.514 280 667.863 245 646.213 210 624.562 245 602.911 280 646.213 280" fill="#bc3030" opacity="0.6"/>
  <polygon points="732.18 280 775.482 280 753.831 245 732.18 210 710.53 245 688.879 280 732.18 280" fill="#bc3030" opacity="0.6"/>
  <polygon points="818.18 280 861.482 280 839.831 245 818.18 210 796.53 245 774.879 280 818.18 280" fill="#bc3030" opacity="0.6"/>
  <polygon points="904.18 280 947.482 280 925.831 245 904.18 210 882.53 245 860.879 280 904.18 280" fill="#bc3030" opacity="0.6"/>
  <polygon points="946.924 0 946.924 0.414 925.53 35 903.879 70 903.552 70 925.203 105 946.854 140 946.924 139.886 946.924 140.414 925.53 175 903.879 210 903.552 210 925.203 245 946.854 280 946.924 279.886 946.924 280 990.924 280 990.924 0 946.924 0" fill="#bc3030" opacity="0.6"/>
</svg>
