<svg xmlns="http://www.w3.org/2000/svg" width="1942.254" height="1152" viewBox="0 0 1942.254 1152">
  <polygon points="969.991 432 1006.141 432 988.066 468 969.991 504 951.915 468 933.84 432 969.991 432" fill="#aa3030" opacity="0.4"/>
  <polygon points="1330.141 432 1366.292 432 1348.217 468 1330.141 504 1312.066 468 1293.991 432 1330.141 432" fill="#aa3030" opacity="0.4"/>
  <polygon points="1402.141 432 1438.292 432 1420.217 468 1402.141 504 1384.066 468 1365.991 432 1402.141 432" fill="#aa3030" opacity="0.4"/>
  <polygon points="1690.141 432 1726.292 432 1708.217 468 1690.141 504 1672.066 468 1653.991 432 1690.141 432" fill="#aa3030" opacity="0.4"/>
  <polygon points="1762.141 432 1798.292 432 1780.217 468 1762.141 504 1744.066 468 1725.991 432 1762.141 432" fill="#403030" opacity="0.4"/>
  <polygon points="1834.141 432 1870.292 432 1852.217 468 1834.141 504 1816.066 468 1797.991 432 1834.141 432" fill="#703030" opacity="0.4"/>
  <polygon points="106.217 432 142.367 432 124.292 468 106.217 504 88.141 468 70.066 432 106.217 432" fill="#703030" opacity="0.4"/>
  <polygon points="466.217 432 502.367 432 484.292 468 466.217 504 448.141 468 430.066 432 466.217 432" fill="#bc3030" opacity="0.4"/>
  <polygon points="610.217 432 646.367 432 628.292 468 610.217 504 592.141 468 574.066 432 610.217 432" fill="#bc3030" opacity="0.4"/>
  <polygon points="754.217 432 790.367 432 772.292 468 754.217 504 736.141 468 718.066 432 754.217 432" fill="#bc3030" opacity="0.4"/>
  <polygon points="898.217 432 934.367 432 916.292 468 898.217 504 880.141 468 862.066 432 898.217 432" fill="#703030" opacity="0.4"/>
  <polygon points="969.953 289 1006.104 289 988.028 325 969.953 361 951.878 325 933.802 289 969.953 289" fill="#aa3030" opacity="0.4"/>
  <polygon points="1042.104 289 1078.254 289 1060.179 325 1042.104 361 1024.028 325 1005.953 289 1042.104 289" fill="#aa3030" opacity="0.4"/>
  <polygon points="1114.104 289 1150.254 289 1132.179 325 1114.104 361 1096.028 325 1077.953 289 1114.104 289" fill="#703030" opacity="0.4"/>
  <polygon points="1258.104 289 1294.254 289 1276.179 325 1258.104 361 1240.028 325 1221.953 289 1258.104 289" fill="#aa3030" opacity="0.4"/>
  <polygon points="1330.104 289 1366.254 289 1348.179 325 1330.104 361 1312.028 325 1293.953 289 1330.104 289" fill="#aa3030" opacity="0.4"/>
  <polygon points="1402.104 289 1438.254 289 1420.179 325 1402.104 361 1384.028 325 1365.953 289 1402.104 289" fill="#403030" opacity="0.4"/>
  <polygon points="1474.104 289 1510.254 289 1492.179 325 1474.104 361 1456.028 325 1437.953 289 1474.104 289" fill="#aa3030" opacity="0.4"/>
  <polygon points="1546.104 289 1582.254 289 1564.179 325 1546.104 361 1528.028 325 1509.953 289 1546.104 289" fill="#aa3030" opacity="0.4"/>
  <polygon points="1762.104 289 1798.254 289 1780.179 325 1762.104 361 1744.028 325 1725.953 289 1762.104 289" fill="#aa3030" opacity="0.4"/>
  <polygon points="106.179 289 142.33 289 124.254 325 106.179 361 88.104 325 70.028 289 106.179 289" fill="#403030" opacity="0.4"/>
  <polygon points="178.179 289 214.33 289 196.254 325 178.179 361 160.104 325 142.028 289 178.179 289" fill="#403030" opacity="0.4"/>
  <polygon points="538.179 289 574.33 289 556.254 325 538.179 361 520.104 325 502.028 289 538.179 289" fill="#aa3030" opacity="0.4"/>
  <polygon points="610.179 289 646.33 289 628.254 325 610.179 361 592.104 325 574.028 289 610.179 289" fill="#403030" opacity="0.4"/>
  <polygon points="754.179 289 790.33 289 772.254 325 754.179 361 736.104 325 718.028 289 754.179 289" fill="#bc3030" opacity="0.4"/>
  <polygon points="826.179 289 862.33 289 844.254 325 826.179 361 808.104 325 790.028 289 826.179 289" fill="#703030" opacity="0.4"/>
  <polygon points="898.179 289 934.33 289 916.254 325 898.179 361 880.104 325 862.028 289 898.179 289" fill="#aa3030" opacity="0.4"/>
  <polygon points="1114.104 143 1150.254 143 1132.179 179 1114.104 215 1096.028 179 1077.953 143 1114.104 143" fill="#aa3030" opacity="0.4"/>
  <polygon points="1186.104 143 1222.254 143 1204.179 179 1186.104 215 1168.028 179 1149.953 143 1186.104 143" fill="#403030" opacity="0.4"/>
  <polygon points="1546.104 143 1582.254 143 1564.179 179 1546.104 215 1528.028 179 1509.953 143 1546.104 143" fill="#aa3030" opacity="0.4"/>
  <polygon points="1906.104 143 1942.254 143 1924.179 179 1906.104 215 1888.028 179 1869.953 143 1906.104 143" fill="#703030" opacity="0.4"/>
  <polygon points="250.179 143 286.33 143 268.254 179 250.179 215 232.104 179 214.028 143 250.179 143" fill="#403030" opacity="0.4"/>
  <polygon points="538.179 143 574.33 143 556.254 179 538.179 215 520.104 179 502.028 143 538.179 143" fill="#403030" opacity="0.4"/>
  <polygon points="826.179 143 862.33 143 844.254 179 826.179 215 808.104 179 790.028 143 826.179 143" fill="#aa3030" opacity="0.4"/>
  <polygon points="1042.104 0 1078.254 0 1060.179 36 1042.104 72 1024.028 36 1005.953 0 1042.104 0" fill="#403030" opacity="0.4"/>
  <polygon points="1114.104 0 1150.254 0 1132.179 36 1114.104 72 1096.028 36 1077.953 0 1114.104 0" fill="#403030" opacity="0.4"/>
  <polygon points="1474.104 0 1510.254 0 1492.179 36 1474.104 72 1456.028 36 1437.953 0 1474.104 0" fill="#403030" opacity="0.4"/>
  <polygon points="250.179 0 286.33 0 268.254 36 250.179 72 232.104 36 214.028 0 250.179 0" fill="#403030" opacity="0.4"/>
  <polygon points="754.179 0 790.33 0 772.254 36 754.179 72 736.104 36 718.028 0 754.179 0" fill="#403030" opacity="0.4"/>
  <polygon points="1114.104 577 1150.254 577 1132.179 613 1114.104 649 1096.028 613 1077.953 577 1114.104 577" fill="#703030" opacity="0.4"/>
  <polygon points="1186.104 577 1222.254 577 1204.179 613 1186.104 649 1168.028 613 1149.953 577 1186.104 577" fill="#bc3030" opacity="0.4"/>
  <polygon points="1258.104 577 1294.254 577 1276.179 613 1258.104 649 1240.028 613 1221.953 577 1258.104 577" fill="#aa3030" opacity="0.4"/>
  <polygon points="1330.104 577 1366.254 577 1348.179 613 1330.104 649 1312.028 613 1293.953 577 1330.104 577" fill="#aa3030" opacity="0.4"/>
  <polygon points="1474.104 577 1510.254 577 1492.179 613 1474.104 649 1456.028 613 1437.953 577 1474.104 577" fill="#703030" opacity="0.4"/>
  <polygon points="1546.104 577 1582.254 577 1564.179 613 1546.104 649 1528.028 613 1509.953 577 1546.104 577" fill="#aa3030" opacity="0.4"/>
  <polygon points="1618.104 577 1654.254 577 1636.179 613 1618.104 649 1600.028 613 1581.953 577 1618.104 577" fill="#403030" opacity="0.4"/>
  <polygon points="1690.104 577 1726.254 577 1708.179 613 1690.104 649 1672.028 613 1653.953 577 1690.104 577" fill="#403030" opacity="0.4"/>
  <polygon points="1762.104 577 1798.254 577 1780.179 613 1762.104 649 1744.028 613 1725.953 577 1762.104 577" fill="#aa3030" opacity="0.4"/>
  <polygon points="1906.104 577 1942.254 577 1924.179 613 1906.104 649 1888.028 613 1869.953 577 1906.104 577" fill="#403030" opacity="0.4"/>
  <polygon points="106.179 577 142.33 577 124.254 613 106.179 649 88.104 613 70.028 577 106.179 577" fill="#703030" opacity="0.4"/>
  <polygon points="394.179 577 430.33 577 412.254 613 394.179 649 376.104 613 358.028 577 394.179 577" fill="#aa3030" opacity="0.4"/>
  <polygon points="466.179 577 502.33 577 484.254 613 466.179 649 448.104 613 430.028 577 466.179 577" fill="#403030" opacity="0.4"/>
  <polygon points="610.179 577 646.33 577 628.254 613 610.179 649 592.104 613 574.028 577 610.179 577" fill="#703030" opacity="0.4"/>
  <polygon points="682.179 577 718.33 577 700.254 613 682.179 649 664.104 613 646.028 577 682.179 577" fill="#aa3030" opacity="0.4"/>
  <polygon points="969.953 720 1006.104 720 988.028 756 969.953 792 951.878 756 933.802 720 969.953 720" fill="#703030" opacity="0.4"/>
  <polygon points="1042.104 720 1078.254 720 1060.179 756 1042.104 792 1024.028 756 1005.953 720 1042.104 720" fill="#403030" opacity="0.4"/>
  <polygon points="1114.104 720 1150.254 720 1132.179 756 1114.104 792 1096.028 756 1077.953 720 1114.104 720" fill="#aa3030" opacity="0.4"/>
  <polygon points="1258.104 720 1294.254 720 1276.179 756 1258.104 792 1240.028 756 1221.953 720 1258.104 720" fill="#aa3030" opacity="0.4"/>
  <polygon points="1330.104 720 1366.254 720 1348.179 756 1330.104 792 1312.028 756 1293.953 720 1330.104 720" fill="#aa3030" opacity="0.4"/>
  <polygon points="1402.104 720 1438.254 720 1420.179 756 1402.104 792 1384.028 756 1365.953 720 1402.104 720" fill="#703030" opacity="0.4"/>
  <polygon points="1546.104 720 1582.254 720 1564.179 756 1546.104 792 1528.028 756 1509.953 720 1546.104 720" fill="#aa3030" opacity="0.4"/>
  <polygon points="1618.104 720 1654.254 720 1636.179 756 1618.104 792 1600.028 756 1581.953 720 1618.104 720" fill="#403030" opacity="0.4"/>
  <polygon points="178.179 720 214.33 720 196.254 756 178.179 792 160.104 756 142.028 720 178.179 720" fill="#703030" opacity="0.4"/>
  <polygon points="250.179 720 286.33 720 268.254 756 250.179 792 232.104 756 214.028 720 250.179 720" fill="#703030" opacity="0.4"/>
  <polygon points="394.179 720 430.33 720 412.254 756 394.179 792 376.104 756 358.028 720 394.179 720" fill="#aa3030" opacity="0.4"/>
  <polygon points="466.179 720 502.33 720 484.254 756 466.179 792 448.104 756 430.028 720 466.179 720" fill="#403030" opacity="0.4"/>
  <polygon points="538.179 720 574.33 720 556.254 756 538.179 792 520.104 756 502.028 720 538.179 720" fill="#aa3030" opacity="0.4"/>
  <polygon points="610.179 720 646.33 720 628.254 756 610.179 792 592.104 756 574.028 720 610.179 720" fill="#aa3030" opacity="0.4"/>
  <polygon points="682.179 720 718.33 720 700.254 756 682.179 792 664.104 756 646.028 720 682.179 720" fill="#bc3030" opacity="0.4"/>
  <polygon points="898.179 720 934.33 720 916.254 756 898.179 792 880.104 756 862.028 720 898.179 720" fill="#aa3030" opacity="0.4"/>
  <polygon points="969.953 865 1006.104 865 988.028 901 969.953 937 951.878 901 933.802 865 969.953 865" fill="#aa3030" opacity="0.4"/>
  <polygon points="1186.104 865 1222.254 865 1204.179 901 1186.104 937 1168.028 901 1149.953 865 1186.104 865" fill="#aa3030" opacity="0.4"/>
  <polygon points="1258.104 865 1294.254 865 1276.179 901 1258.104 937 1240.028 901 1221.953 865 1258.104 865" fill="#aa3030" opacity="0.4"/>
  <polygon points="1330.104 865 1366.254 865 1348.179 901 1330.104 937 1312.028 901 1293.953 865 1330.104 865" fill="#aa3030" opacity="0.4"/>
  <polygon points="1402.104 865 1438.254 865 1420.179 901 1402.104 937 1384.028 901 1365.953 865 1402.104 865" fill="#403030" opacity="0.4"/>
  <polygon points="1474.104 865 1510.254 865 1492.179 901 1474.104 937 1456.028 901 1437.953 865 1474.104 865" fill="#aa3030" opacity="0.4"/>
  <polygon points="1690.104 865 1726.254 865 1708.179 901 1690.104 937 1672.028 901 1653.953 865 1690.104 865" fill="#aa3030" opacity="0.4"/>
  <polygon points="1762.104 865 1798.254 865 1780.179 901 1762.104 937 1744.028 901 1725.953 865 1762.104 865" fill="#403030" opacity="0.4"/>
  <polygon points="178.179 865 214.33 865 196.254 901 178.179 937 160.104 901 142.028 865 178.179 865" fill="#703030" opacity="0.4"/>
  <polygon points="250.179 865 286.33 865 268.254 901 250.179 937 232.104 901 214.028 865 250.179 865" fill="#aa3030" opacity="0.4"/>
  <polygon points="394.179 865 430.33 865 412.254 901 394.179 937 376.104 901 358.028 865 394.179 865" fill="#aa3030" opacity="0.4"/>
  <polygon points="466.179 865 502.33 865 484.254 901 466.179 937 448.104 901 430.028 865 466.179 865" fill="#aa3030" opacity="0.4"/>
  <polygon points="538.179 865 574.33 865 556.254 901 538.179 937 520.104 901 502.028 865 538.179 865" fill="#aa3030" opacity="0.4"/>
  <polygon points="682.179 865 718.33 865 700.254 901 682.179 937 664.104 901 646.028 865 682.179 865" fill="#703030" opacity="0.4"/>
  <polygon points="826.179 865 862.33 865 844.254 901 826.179 937 808.104 901 790.028 865 826.179 865" fill="#403030" opacity="0.4"/>
  <polygon points="898.179 865 934.33 865 916.254 901 898.179 937 880.104 901 862.028 865 898.179 865" fill="#aa3030" opacity="0.4"/>
  <polygon points="969.953 1008 1006.104 1008 988.028 1044 969.953 1080 951.878 1044 933.802 1008 969.953 1008" fill="#703030" opacity="0.4"/>
  <polygon points="1042.104 1008 1078.254 1008 1060.179 1044 1042.104 1080 1024.028 1044 1005.953 1008 1042.104 1008" fill="#703030" opacity="0.4"/>
  <polygon points="1114.104 1008 1150.254 1008 1132.179 1044 1114.104 1080 1096.028 1044 1077.953 1008 1114.104 1008" fill="#703030" opacity="0.4"/>
  <polygon points="1258.104 1008 1294.254 1008 1276.179 1044 1258.104 1080 1240.028 1044 1221.953 1008 1258.104 1008" fill="#403030" opacity="0.4"/>
  <polygon points="1330.104 1008 1366.254 1008 1348.179 1044 1330.104 1080 1312.028 1044 1293.953 1008 1330.104 1008" fill="#703030" opacity="0.4"/>
  <polygon points="1402.104 1008 1438.254 1008 1420.179 1044 1402.104 1080 1384.028 1044 1365.953 1008 1402.104 1008" fill="#703030" opacity="0.4"/>
  <polygon points="1474.104 1008 1510.254 1008 1492.179 1044 1474.104 1080 1456.028 1044 1437.953 1008 1474.104 1008" fill="#703030" opacity="0.4"/>
  <polygon points="1546.104 1008 1582.254 1008 1564.179 1044 1546.104 1080 1528.028 1044 1509.953 1008 1546.104 1008" fill="#703030" opacity="0.4"/>
  <polygon points="1618.104 1008 1654.254 1008 1636.179 1044 1618.104 1080 1600.028 1044 1581.953 1008 1618.104 1008" fill="#403030" opacity="0.4"/>
  <polygon points="1690.104 1008 1726.254 1008 1708.179 1044 1690.104 1080 1672.028 1044 1653.953 1008 1690.104 1008" fill="#703030" opacity="0.4"/>
  <polygon points="106.179 1008 142.33 1008 124.254 1044 106.179 1080 88.104 1044 70.028 1008 106.179 1008" fill="#403030" opacity="0.4"/>
  <polygon points="250.179 1008 286.33 1008 268.254 1044 250.179 1080 232.104 1044 214.028 1008 250.179 1008" fill="#703030" opacity="0.4"/>
  <polygon points="466.179 1008 502.33 1008 484.254 1044 466.179 1080 448.104 1044 430.028 1008 466.179 1008" fill="#403030" opacity="0.4"/>
  <polygon points="538.179 1008 574.33 1008 556.254 1044 538.179 1080 520.104 1044 502.028 1008 538.179 1008" fill="#703030" opacity="0.4"/>
  <polygon points="682.179 1008 718.33 1008 700.254 1044 682.179 1080 664.104 1044 646.028 1008 682.179 1008" fill="#703030" opacity="0.4"/>
  <polygon points="898.179 1008 934.33 1008 916.254 1044 898.179 1080 880.104 1044 862.028 1008 898.179 1008" fill="#703030" opacity="0.4"/>
  <polygon points="1007.972 648 1044.122 648 1026.047 612 1007.972 576 989.896 612 971.821 648 1007.972 648" fill="#703030" opacity="0.4"/>
  <polygon points="1152.122 648 1188.273 648 1170.198 612 1152.122 576 1134.047 612 1115.972 648 1152.122 648" fill="#aa3030" opacity="0.4"/>
  <polygon points="1224.122 648 1260.273 648 1242.198 612 1224.122 576 1206.047 612 1187.972 648 1224.122 648" fill="#403030" opacity="0.4"/>
  <polygon points="1368.122 648 1404.273 648 1386.198 612 1368.122 576 1350.047 612 1331.972 648 1368.122 648" fill="#703030" opacity="0.4"/>
  <polygon points="1512.122 648 1548.273 648 1530.198 612 1512.122 576 1494.047 612 1475.972 648 1512.122 648" fill="#703030" opacity="0.4"/>
  <polygon points="144.198 648 180.348 648 162.273 612 144.198 576 126.122 612 108.047 648 144.198 648" fill="#703030" opacity="0.4"/>
  <polygon points="288.198 648 324.348 648 306.273 612 288.198 576 270.122 612 252.047 648 288.198 648" fill="#aa3030" opacity="0.4"/>
  <polygon points="576.198 648 612.348 648 594.273 612 576.198 576 558.122 612 540.047 648 576.198 648" fill="#aa3030" opacity="0.4"/>
  <polygon points="792.198 648 828.348 648 810.273 612 792.198 576 774.122 612 756.047 648 792.198 648" fill="#aa3030" opacity="0.4"/>
  <polygon points="864.198 648 900.348 648 882.273 612 864.198 576 846.122 612 828.047 648 864.198 648" fill="#703030" opacity="0.4"/>
  <polygon points="936.198 648 972.348 648 954.273 612 936.198 576 918.122 612 900.047 648 936.198 648" fill="#aa3030" opacity="0.4"/>
  <polygon points="1152.085 791 1188.235 791 1170.16 755 1152.085 719 1134.009 755 1115.934 791 1152.085 791" fill="#403030" opacity="0.4"/>
  <polygon points="1512.085 791 1548.235 791 1530.16 755 1512.085 719 1494.009 755 1475.934 791 1512.085 791" fill="#aa3030" opacity="0.4"/>
  <polygon points="72.16 791 108.311 791 90.235 755 72.16 719 54.085 755 36.009 791 72.16 791" fill="#403030" opacity="0.4"/>
  <polygon points="288.16 791 324.311 791 306.235 755 288.16 719 270.085 755 252.009 791 288.16 791" fill="#aa3030" opacity="0.4"/>
  <polygon points="360.16 791 396.311 791 378.235 755 360.16 719 342.085 755 324.009 791 360.16 791" fill="#703030" opacity="0.4"/>
  <polygon points="576.16 791 612.311 791 594.235 755 576.16 719 558.085 755 540.009 791 576.16 791" fill="#403030" opacity="0.4"/>
  <polygon points="720.16 791 756.311 791 738.235 755 720.16 719 702.085 755 684.009 791 720.16 791" fill="#403030" opacity="0.4"/>
  <polygon points="792.16 791 828.311 791 810.235 755 792.16 719 774.085 755 756.009 791 792.16 791" fill="#aa3030" opacity="0.4"/>
  <polygon points="864.16 791 900.311 791 882.235 755 864.16 719 846.085 755 828.009 791 864.16 791" fill="#403030" opacity="0.4"/>
  <polygon points="1080.085 937 1116.235 937 1098.16 901 1080.085 865 1062.009 901 1043.934 937 1080.085 937" fill="#703030" opacity="0.4"/>
  <polygon points="1224.085 937 1260.235 937 1242.16 901 1224.085 865 1206.009 901 1187.934 937 1224.085 937" fill="#bc3030" opacity="0.4"/>
  <polygon points="1368.085 937 1404.235 937 1386.16 901 1368.085 865 1350.009 901 1331.934 937 1368.085 937" fill="#aa3030" opacity="0.4"/>
  <polygon points="1440.085 937 1476.235 937 1458.16 901 1440.085 865 1422.009 901 1403.934 937 1440.085 937" fill="#aa3030" opacity="0.4"/>
  <polygon points="1512.085 937 1548.235 937 1530.16 901 1512.085 865 1494.009 901 1475.934 937 1512.085 937" fill="#aa3030" opacity="0.4"/>
  <polygon points="1584.085 937 1620.235 937 1602.16 901 1584.085 865 1566.009 901 1547.934 937 1584.085 937" fill="#aa3030" opacity="0.4"/>
  <polygon points="1656.085 937 1692.235 937 1674.16 901 1656.085 865 1638.009 901 1619.934 937 1656.085 937" fill="#aa3030" opacity="0.4"/>
  <polygon points="1872.085 937 1908.235 937 1890.16 901 1872.085 865 1854.009 901 1835.934 937 1872.085 937" fill="#403030" opacity="0.4"/>
  <polygon points="216.16 937 252.311 937 234.235 901 216.16 865 198.085 901 180.009 937 216.16 937" fill="#403030" opacity="0.4"/>
  <polygon points="432.16 937 468.311 937 450.235 901 432.16 865 414.085 901 396.009 937 432.16 937" fill="#403030" opacity="0.4"/>
  <polygon points="720.16 937 756.311 937 738.235 901 720.16 865 702.085 901 684.009 937 720.16 937" fill="#aa3030" opacity="0.4"/>
  <polygon points="792.16 937 828.311 937 810.235 901 792.16 865 774.085 901 756.009 937 792.16 937" fill="#aa3030" opacity="0.4"/>
  <polygon points="864.16 937 900.311 937 882.235 901 864.16 865 846.085 901 828.009 937 864.16 937" fill="#703030" opacity="0.4"/>
  <polygon points="1007.934 1080 1044.085 1080 1026.009 1044 1007.934 1008 989.859 1044 971.783 1080 1007.934 1080" fill="#703030" opacity="0.4"/>
  <polygon points="1152.085 1080 1188.235 1080 1170.16 1044 1152.085 1008 1134.009 1044 1115.934 1080 1152.085 1080" fill="#703030" opacity="0.4"/>
  <polygon points="1224.085 1080 1260.235 1080 1242.16 1044 1224.085 1008 1206.009 1044 1187.934 1080 1224.085 1080" fill="#703030" opacity="0.4"/>
  <polygon points="1440.085 1080 1476.235 1080 1458.16 1044 1440.085 1008 1422.009 1044 1403.934 1080 1440.085 1080" fill="#403030" opacity="0.4"/>
  <polygon points="288.16 1080 324.311 1080 306.235 1044 288.16 1008 270.085 1044 252.009 1080 288.16 1080" fill="#703030" opacity="0.4"/>
  <polygon points="360.16 1080 396.311 1080 378.235 1044 360.16 1008 342.085 1044 324.009 1080 360.16 1080" fill="#403030" opacity="0.4"/>
  <polygon points="432.16 1080 468.311 1080 450.235 1044 432.16 1008 414.085 1044 396.009 1080 432.16 1080" fill="#703030" opacity="0.4"/>
  <polygon points="576.16 1080 612.311 1080 594.235 1044 576.16 1008 558.085 1044 540.009 1080 576.16 1080" fill="#403030" opacity="0.4"/>
  <polygon points="720.16 1080 756.311 1080 738.235 1044 720.16 1008 702.085 1044 684.009 1080 720.16 1080" fill="#703030" opacity="0.4"/>
  <polygon points="792.16 1080 828.311 1080 810.235 1044 792.16 1008 774.085 1044 756.009 1080 792.16 1080" fill="#703030" opacity="0.4"/>
  <polygon points="864.16 1080 900.311 1080 882.235 1044 864.16 1008 846.085 1044 828.009 1080 864.16 1080" fill="#703030" opacity="0.4"/>
  <polygon points="936.16 1080 972.311 1080 954.235 1044 936.16 1008 918.085 1044 900.009 1080 936.16 1080" fill="#403030" opacity="0.4"/>
  <polygon points="1007.934 503 1044.085 503 1026.009 467 1007.934 431 989.859 467 971.783 503 1007.934 503" fill="#aa3030" opacity="0.4"/>
  <polygon points="1080.085 503 1116.235 503 1098.16 467 1080.085 431 1062.009 467 1043.934 503 1080.085 503" fill="#aa3030" opacity="0.4"/>
  <polygon points="1224.085 503 1260.235 503 1242.16 467 1224.085 431 1206.009 467 1187.934 503 1224.085 503" fill="#aa3030" opacity="0.4"/>
  <polygon points="1296.085 503 1332.235 503 1314.16 467 1296.085 431 1278.009 467 1259.934 503 1296.085 503" fill="#bc3030" opacity="0.4"/>
  <polygon points="1440.085 503 1476.235 503 1458.16 467 1440.085 431 1422.009 467 1403.934 503 1440.085 503" fill="#aa3030" opacity="0.4"/>
  <polygon points="1584.085 503 1620.235 503 1602.16 467 1584.085 431 1566.009 467 1547.934 503 1584.085 503" fill="#aa3030" opacity="0.4"/>
  <polygon points="144.16 503 180.311 503 162.235 467 144.16 431 126.085 467 108.009 503 144.16 503" fill="#403030" opacity="0.4"/>
  <polygon points="288.16 503 324.311 503 306.235 467 288.16 431 270.085 467 252.009 503 288.16 503" fill="#403030" opacity="0.4"/>
  <polygon points="360.16 503 396.311 503 378.235 467 360.16 431 342.085 467 324.009 503 360.16 503" fill="#403030" opacity="0.4"/>
  <polygon points="504.16 503 540.311 503 522.235 467 504.16 431 486.085 467 468.009 503 504.16 503" fill="#aa3030" opacity="0.4"/>
  <polygon points="576.16 503 612.311 503 594.235 467 576.16 431 558.085 467 540.009 503 576.16 503" fill="#aa3030" opacity="0.4"/>
  <polygon points="648.16 503 684.311 503 666.235 467 648.16 431 630.085 467 612.009 503 648.16 503" fill="#aa3030" opacity="0.4"/>
  <polygon points="792.16 503 828.311 503 810.235 467 792.16 431 774.085 467 756.009 503 792.16 503" fill="#aa3030" opacity="0.4"/>
  <polygon points="1152.085 360 1188.235 360 1170.16 324 1152.085 288 1134.009 324 1115.934 360 1152.085 360" fill="#aa3030" opacity="0.4"/>
  <polygon points="1224.085 360 1260.235 360 1242.16 324 1224.085 288 1206.009 324 1187.934 360 1224.085 360" fill="#703030" opacity="0.4"/>
  <polygon points="1296.085 360 1332.235 360 1314.16 324 1296.085 288 1278.009 324 1259.934 360 1296.085 360" fill="#703030" opacity="0.4"/>
  <polygon points="288.16 360 324.311 360 306.235 324 288.16 288 270.085 324 252.009 360 288.16 360" fill="#bc3030" opacity="0.4"/>
  <polygon points="504.16 360 540.311 360 522.235 324 504.16 288 486.085 324 468.009 360 504.16 360" fill="#bc3030" opacity="0.4"/>
  <polygon points="792.16 360 828.311 360 810.235 324 792.16 288 774.085 324 756.009 360 792.16 360" fill="#403030" opacity="0.4"/>
  <polygon points="936.16 360 972.311 360 954.235 324 936.16 288 918.085 324 900.009 360 936.16 360" fill="#403030" opacity="0.4"/>
  <polygon points="1007.934 215 1044.085 215 1026.009 179 1007.934 143 989.859 179 971.783 215 1007.934 215" fill="#aa3030" opacity="0.4"/>
  <polygon points="1080.085 215 1116.235 215 1098.16 179 1080.085 143 1062.009 179 1043.934 215 1080.085 215" fill="#403030" opacity="0.4"/>
  <polygon points="1224.085 215 1260.235 215 1242.16 179 1224.085 143 1206.009 179 1187.934 215 1224.085 215" fill="#aa3030" opacity="0.4"/>
  <polygon points="1368.085 215 1404.235 215 1386.16 179 1368.085 143 1350.009 179 1331.934 215 1368.085 215" fill="#aa3030" opacity="0.4"/>
  <polygon points="1728.085 215 1764.235 215 1746.16 179 1728.085 143 1710.009 179 1691.934 215 1728.085 215" fill="#aa3030" opacity="0.4"/>
  <polygon points="1800.085 215 1836.235 215 1818.16 179 1800.085 143 1782.009 179 1763.934 215 1800.085 215" fill="#aa3030" opacity="0.4"/>
  <polygon points="1872.085 215 1908.235 215 1890.16 179 1872.085 143 1854.009 179 1835.934 215 1872.085 215" fill="#703030" opacity="0.4"/>
  <polygon points="432.16 215 468.311 215 450.235 179 432.16 143 414.085 179 396.009 215 432.16 215" fill="#aa3030" opacity="0.4"/>
  <polygon points="720.16 215 756.311 215 738.235 179 720.16 143 702.085 179 684.009 215 720.16 215" fill="#403030" opacity="0.4"/>
  <polygon points="936.16 215 972.311 215 954.235 179 936.16 143 918.085 179 900.009 215 936.16 215" fill="#403030" opacity="0.4"/>
  <polygon points="1296.085 72 1332.235 72 1314.16 36 1296.085 0 1278.009 36 1259.934 72 1296.085 72" fill="#403030" opacity="0.4"/>
  <polygon points="1368.085 72 1404.235 72 1386.16 36 1368.085 0 1350.009 36 1331.934 72 1368.085 72" fill="#403030" opacity="0.4"/>
  <polygon points="1872.085 72 1908.235 72 1890.16 36 1872.085 0 1854.009 36 1835.934 72 1872.085 72" fill="#403030" opacity="0.4"/>
  <polygon points="933.981 504 970.132 504 952.056 540 933.981 576 915.906 540 897.831 504 933.981 504" fill="#aa3030" opacity="0.4"/>
  <polygon points="1006.132 504 1042.282 504 1024.207 540 1006.132 576 988.056 540 969.981 504 1006.132 504" fill="#aa3030" opacity="0.4"/>
  <polygon points="1078.132 504 1114.282 504 1096.207 540 1078.132 576 1060.056 540 1041.981 504 1078.132 504" fill="#403030" opacity="0.4"/>
  <polygon points="1150.132 504 1186.282 504 1168.207 540 1150.132 576 1132.056 540 1113.981 504 1150.132 504" fill="#703030" opacity="0.4"/>
  <polygon points="1222.132 504 1258.282 504 1240.207 540 1222.132 576 1204.056 540 1185.981 504 1222.132 504" fill="#aa3030" opacity="0.4"/>
  <polygon points="1654.132 504 1690.282 504 1672.207 540 1654.132 576 1636.056 540 1617.981 504 1654.132 504" fill="#aa3030" opacity="0.4"/>
  <polygon points="1726.132 504 1762.282 504 1744.207 540 1726.132 576 1708.056 540 1689.981 504 1726.132 504" fill="#aa3030" opacity="0.4"/>
  <polygon points="214.207 504 250.358 504 232.282 540 214.207 576 196.132 540 178.056 504 214.207 504" fill="#aa3030" opacity="0.4"/>
  <polygon points="430.207 504 466.358 504 448.282 540 430.207 576 412.132 540 394.056 504 430.207 504" fill="#703030" opacity="0.4"/>
  <polygon points="646.207 504 682.358 504 664.282 540 646.207 576 628.132 540 610.056 504 646.207 504" fill="#403030" opacity="0.4"/>
  <polygon points="718.207 504 754.358 504 736.282 540 718.207 576 700.132 540 682.056 504 718.207 504" fill="#aa3030" opacity="0.4"/>
  <polygon points="790.207 504 826.358 504 808.282 540 790.207 576 772.132 540 754.056 504 790.207 504" fill="#703030" opacity="0.4"/>
  <polygon points="862.207 504 898.358 504 880.282 540 862.207 576 844.132 540 826.056 504 862.207 504" fill="#703030" opacity="0.4"/>
  <polygon points="1006.094 361 1042.245 361 1024.169 397 1006.094 433 988.019 397 969.944 361 1006.094 361" fill="#bc3030" opacity="0.4"/>
  <polygon points="1078.094 361 1114.245 361 1096.169 397 1078.094 433 1060.019 397 1041.944 361 1078.094 361" fill="#aa3030" opacity="0.4"/>
  <polygon points="1150.094 361 1186.245 361 1168.169 397 1150.094 433 1132.019 397 1113.944 361 1150.094 361" fill="#703030" opacity="0.4"/>
  <polygon points="1366.094 361 1402.245 361 1384.169 397 1366.094 433 1348.019 397 1329.944 361 1366.094 361" fill="#bc3030" opacity="0.4"/>
  <polygon points="1510.094 361 1546.245 361 1528.169 397 1510.094 433 1492.019 397 1473.944 361 1510.094 361" fill="#aa3030" opacity="0.4"/>
  <polygon points="1654.094 361 1690.245 361 1672.169 397 1654.094 433 1636.019 397 1617.944 361 1654.094 361" fill="#aa3030" opacity="0.4"/>
  <polygon points="1870.094 361 1906.245 361 1888.169 397 1870.094 433 1852.019 397 1833.944 361 1870.094 361" fill="#703030" opacity="0.4"/>
  <polygon points="358.169 361 394.32 361 376.245 397 358.169 433 340.094 397 322.019 361 358.169 361" fill="#aa3030" opacity="0.4"/>
  <polygon points="430.169 361 466.32 361 448.245 397 430.169 433 412.094 397 394.019 361 430.169 361" fill="#aa3030" opacity="0.4"/>
  <polygon points="790.169 361 826.32 361 808.245 397 790.169 433 772.094 397 754.019 361 790.169 361" fill="#403030" opacity="0.4"/>
  <polygon points="862.169 361 898.32 361 880.245 397 862.169 433 844.094 397 826.019 361 862.169 361" fill="#703030" opacity="0.4"/>
  <polygon points="1150.094 215 1186.245 215 1168.169 251 1150.094 287 1132.019 251 1113.944 215 1150.094 215" fill="#aa3030" opacity="0.4"/>
  <polygon points="1294.094 215 1330.245 215 1312.169 251 1294.094 287 1276.019 251 1257.944 215 1294.094 215" fill="#aa3030" opacity="0.4"/>
  <polygon points="1366.094 215 1402.245 215 1384.169 251 1366.094 287 1348.019 251 1329.944 215 1366.094 215" fill="#aa3030" opacity="0.4"/>
  <polygon points="1798.094 215 1834.245 215 1816.169 251 1798.094 287 1780.019 251 1761.944 215 1798.094 215" fill="#aa3030" opacity="0.4"/>
  <polygon points="70.169 215 106.32 215 88.245 251 70.169 287 52.094 251 34.019 215 70.169 215" fill="#403030" opacity="0.4"/>
  <polygon points="214.169 215 250.32 215 232.245 251 214.169 287 196.094 251 178.019 215 214.169 215" fill="#aa3030" opacity="0.4"/>
  <polygon points="358.169 215 394.32 215 376.245 251 358.169 287 340.094 251 322.019 215 358.169 215" fill="#403030" opacity="0.4"/>
  <polygon points="646.169 215 682.32 215 664.245 251 646.169 287 628.094 251 610.019 215 646.169 215" fill="#aa3030" opacity="0.4"/>
  <polygon points="718.169 215 754.32 215 736.245 251 718.169 287 700.094 251 682.019 215 718.169 215" fill="#703030" opacity="0.4"/>
  <polygon points="790.169 215 826.32 215 808.245 251 790.169 287 772.094 251 754.019 215 790.169 215" fill="#aa3030" opacity="0.4"/>
  <polygon points="1078.094 72 1114.245 72 1096.169 108 1078.094 144 1060.019 108 1041.944 72 1078.094 72" fill="#703030" opacity="0.4"/>
  <polygon points="1150.094 72 1186.245 72 1168.169 108 1150.094 144 1132.019 108 1113.944 72 1150.094 72" fill="#703030" opacity="0.4"/>
  <polygon points="1222.094 72 1258.245 72 1240.169 108 1222.094 144 1204.019 108 1185.944 72 1222.094 72" fill="#703030" opacity="0.4"/>
  <polygon points="1510.094 72 1546.245 72 1528.169 108 1510.094 144 1492.019 108 1473.944 72 1510.094 72" fill="#703030" opacity="0.4"/>
  <polygon points="1582.094 72 1618.245 72 1600.169 108 1582.094 144 1564.019 108 1545.944 72 1582.094 72" fill="#703030" opacity="0.4"/>
  <polygon points="1726.094 72 1762.245 72 1744.169 108 1726.094 144 1708.019 108 1689.944 72 1726.094 72" fill="#703030" opacity="0.4"/>
  <polygon points="1798.094 72 1834.245 72 1816.169 108 1798.094 144 1780.019 108 1761.944 72 1798.094 72" fill="#703030" opacity="0.4"/>
  <polygon points="1870.094 72 1906.245 72 1888.169 108 1870.094 144 1852.019 108 1833.944 72 1870.094 72" fill="#703030" opacity="0.4"/>
  <polygon points="358.169 72 394.32 72 376.245 108 358.169 144 340.094 108 322.019 72 358.169 72" fill="#703030" opacity="0.4"/>
  <polygon points="646.169 72 682.32 72 664.245 108 646.169 144 628.094 108 610.019 72 646.169 72" fill="#703030" opacity="0.4"/>
  <polygon points="718.169 72 754.32 72 736.245 108 718.169 144 700.094 108 682.019 72 718.169 72" fill="#703030" opacity="0.4"/>
  <polygon points="862.169 72 898.32 72 880.245 108 862.169 144 844.094 108 826.019 72 862.169 72" fill="#703030" opacity="0.4"/>
  <polygon points="933.944 649 970.094 649 952.019 685 933.944 721 915.868 685 897.793 649 933.944 649" fill="#bc3030" opacity="0.4"/>
  <polygon points="1078.094 649 1114.245 649 1096.169 685 1078.094 721 1060.019 685 1041.944 649 1078.094 649" fill="#703030" opacity="0.4"/>
  <polygon points="1222.094 649 1258.245 649 1240.169 685 1222.094 721 1204.019 685 1185.944 649 1222.094 649" fill="#aa3030" opacity="0.4"/>
  <polygon points="1294.094 649 1330.245 649 1312.169 685 1294.094 721 1276.019 685 1257.944 649 1294.094 649" fill="#aa3030" opacity="0.4"/>
  <polygon points="1438.094 649 1474.245 649 1456.169 685 1438.094 721 1420.019 685 1401.944 649 1438.094 649" fill="#aa3030" opacity="0.4"/>
  <polygon points="1510.094 649 1546.245 649 1528.169 685 1510.094 721 1492.019 685 1473.944 649 1510.094 649" fill="#bc3030" opacity="0.4"/>
  <polygon points="1582.094 649 1618.245 649 1600.169 685 1582.094 721 1564.019 685 1545.944 649 1582.094 649" fill="#aa3030" opacity="0.4"/>
  <polygon points="1726.094 649 1762.245 649 1744.169 685 1726.094 721 1708.019 685 1689.944 649 1726.094 649" fill="#403030" opacity="0.4"/>
  <polygon points="70.169 649 106.32 649 88.245 685 70.169 721 52.094 685 34.019 649 70.169 649" fill="#403030" opacity="0.4"/>
  <polygon points="214.169 649 250.32 649 232.245 685 214.169 721 196.094 685 178.019 649 214.169 649" fill="#aa3030" opacity="0.4"/>
  <polygon points="286.169 649 322.32 649 304.245 685 286.169 721 268.094 685 250.019 649 286.169 649" fill="#aa3030" opacity="0.4"/>
  <polygon points="358.169 649 394.32 649 376.245 685 358.169 721 340.094 685 322.019 649 358.169 649" fill="#703030" opacity="0.4"/>
  <polygon points="430.169 649 466.32 649 448.245 685 430.169 721 412.094 685 394.019 649 430.169 649" fill="#aa3030" opacity="0.4"/>
  <polygon points="502.169 649 538.32 649 520.245 685 502.169 721 484.094 685 466.019 649 502.169 649" fill="#bc3030" opacity="0.4"/>
  <polygon points="574.169 649 610.32 649 592.245 685 574.169 721 556.094 685 538.019 649 574.169 649" fill="#703030" opacity="0.4"/>
  <polygon points="646.169 649 682.32 649 664.245 685 646.169 721 628.094 685 610.019 649 646.169 649" fill="#aa3030" opacity="0.4"/>
  <polygon points="718.169 649 754.32 649 736.245 685 718.169 721 700.094 685 682.019 649 718.169 649" fill="#703030" opacity="0.4"/>
  <polygon points="862.169 649 898.32 649 880.245 685 862.169 721 844.094 685 826.019 649 862.169 649" fill="#aa3030" opacity="0.4"/>
  <polygon points="933.944 792 970.094 792 952.019 828 933.944 864 915.868 828 897.793 792 933.944 792" fill="#aa3030" opacity="0.4"/>
  <polygon points="1006.094 792 1042.245 792 1024.169 828 1006.094 864 988.019 828 969.944 792 1006.094 792" fill="#aa3030" opacity="0.4"/>
  <polygon points="1222.094 792 1258.245 792 1240.169 828 1222.094 864 1204.019 828 1185.944 792 1222.094 792" fill="#aa3030" opacity="0.4"/>
  <polygon points="1366.094 792 1402.245 792 1384.169 828 1366.094 864 1348.019 828 1329.944 792 1366.094 792" fill="#aa3030" opacity="0.4"/>
  <polygon points="1438.094 792 1474.245 792 1456.169 828 1438.094 864 1420.019 828 1401.944 792 1438.094 792" fill="#aa3030" opacity="0.4"/>
  <polygon points="1510.094 792 1546.245 792 1528.169 828 1510.094 864 1492.019 828 1473.944 792 1510.094 792" fill="#aa3030" opacity="0.4"/>
  <polygon points="1582.094 792 1618.245 792 1600.169 828 1582.094 864 1564.019 828 1545.944 792 1582.094 792" fill="#aa3030" opacity="0.4"/>
  <polygon points="1870.094 792 1906.245 792 1888.169 828 1870.094 864 1852.019 828 1833.944 792 1870.094 792" fill="#703030" opacity="0.4"/>
  <polygon points="142.169 792 178.32 792 160.245 828 142.169 864 124.094 828 106.019 792 142.169 792" fill="#403030" opacity="0.4"/>
  <polygon points="214.169 792 250.32 792 232.245 828 214.169 864 196.094 828 178.019 792 214.169 792" fill="#aa3030" opacity="0.4"/>
  <polygon points="430.169 792 466.32 792 448.245 828 430.169 864 412.094 828 394.019 792 430.169 792" fill="#aa3030" opacity="0.4"/>
  <polygon points="502.169 792 538.32 792 520.245 828 502.169 864 484.094 828 466.019 792 502.169 792" fill="#bc3030" opacity="0.4"/>
  <polygon points="574.169 792 610.32 792 592.245 828 574.169 864 556.094 828 538.019 792 574.169 792" fill="#703030" opacity="0.4"/>
  <polygon points="646.169 792 682.32 792 664.245 828 646.169 864 628.094 828 610.019 792 646.169 792" fill="#703030" opacity="0.4"/>
  <polygon points="718.169 792 754.32 792 736.245 828 718.169 864 700.094 828 682.019 792 718.169 792" fill="#aa3030" opacity="0.4"/>
  <polygon points="1006.094 937 1042.245 937 1024.169 973 1006.094 1009 988.019 973 969.944 937 1006.094 937" fill="#aa3030" opacity="0.4"/>
  <polygon points="1366.094 937 1402.245 937 1384.169 973 1366.094 1009 1348.019 973 1329.944 937 1366.094 937" fill="#aa3030" opacity="0.4"/>
  <polygon points="1510.094 937 1546.245 937 1528.169 973 1510.094 1009 1492.019 973 1473.944 937 1510.094 937" fill="#aa3030" opacity="0.4"/>
  <polygon points="1582.094 937 1618.245 937 1600.169 973 1582.094 1009 1564.019 973 1545.944 937 1582.094 937" fill="#aa3030" opacity="0.4"/>
  <polygon points="1654.094 937 1690.245 937 1672.169 973 1654.094 1009 1636.019 973 1617.944 937 1654.094 937" fill="#aa3030" opacity="0.4"/>
  <polygon points="358.169 937 394.32 937 376.245 973 358.169 1009 340.094 973 322.019 937 358.169 937" fill="#aa3030" opacity="0.4"/>
  <polygon points="502.169 937 538.32 937 520.245 973 502.169 1009 484.094 973 466.019 937 502.169 937" fill="#703030" opacity="0.4"/>
  <polygon points="1078.094 1080 1114.245 1080 1096.169 1116 1078.094 1152 1060.019 1116 1041.944 1080 1078.094 1080" fill="#703030" opacity="0.4"/>
  <polygon points="1294.094 1080 1330.245 1080 1312.169 1116 1294.094 1152 1276.019 1116 1257.944 1080 1294.094 1080" fill="#703030" opacity="0.4"/>
  <polygon points="1366.094 1080 1402.245 1080 1384.169 1116 1366.094 1152 1348.019 1116 1329.944 1080 1366.094 1080" fill="#703030" opacity="0.4"/>
  <polygon points="1510.094 1080 1546.245 1080 1528.169 1116 1510.094 1152 1492.019 1116 1473.944 1080 1510.094 1080" fill="#403030" opacity="0.4"/>
  <polygon points="1654.094 1080 1690.245 1080 1672.169 1116 1654.094 1152 1636.019 1116 1617.944 1080 1654.094 1080" fill="#703030" opacity="0.4"/>
  <polygon points="1798.094 1080 1834.245 1080 1816.169 1116 1798.094 1152 1780.019 1116 1761.944 1080 1798.094 1080" fill="#703030" opacity="0.4"/>
  <polygon points="142.169 1080 178.32 1080 160.245 1116 142.169 1152 124.094 1116 106.019 1080 142.169 1080" fill="#403030" opacity="0.4"/>
  <polygon points="214.169 1080 250.32 1080 232.245 1116 214.169 1152 196.094 1116 178.019 1080 214.169 1080" fill="#403030" opacity="0.4"/>
  <polygon points="646.169 1080 682.32 1080 664.245 1116 646.169 1152 628.094 1116 610.019 1080 646.169 1080" fill="#703030" opacity="0.4"/>
  <polygon points="862.169 1080 898.32 1080 880.245 1116 862.169 1152 844.094 1116 826.019 1080 862.169 1080" fill="#403030" opacity="0.4"/>
  <polygon points="1332.113 720 1368.264 720 1350.188 684 1332.113 648 1314.038 684 1295.962 720 1332.113 720" fill="#aa3030" opacity="0.4"/>
  <polygon points="1476.113 720 1512.264 720 1494.188 684 1476.113 648 1458.038 684 1439.962 720 1476.113 720" fill="#aa3030" opacity="0.4"/>
  <polygon points="1692.113 720 1728.264 720 1710.188 684 1692.113 648 1674.038 684 1655.962 720 1692.113 720" fill="#aa3030" opacity="0.4"/>
  <polygon points="324.188 720 360.339 720 342.264 684 324.188 648 306.113 684 288.038 720 324.188 720" fill="#aa3030" opacity="0.4"/>
  <polygon points="468.188 720 504.339 720 486.264 684 468.188 648 450.113 684 432.038 720 468.188 720" fill="#703030" opacity="0.4"/>
  <polygon points="1044.075 863 1080.226 863 1062.151 827 1044.075 791 1026 827 1007.925 863 1044.075 863" fill="#aa3030" opacity="0.4"/>
  <polygon points="1332.075 863 1368.226 863 1350.151 827 1332.075 791 1314 827 1295.925 863 1332.075 863" fill="#aa3030" opacity="0.4"/>
  <polygon points="1548.075 863 1584.226 863 1566.151 827 1548.075 791 1530 827 1511.925 863 1548.075 863" fill="#403030" opacity="0.4"/>
  <polygon points="1692.075 863 1728.226 863 1710.151 827 1692.075 791 1674 827 1655.925 863 1692.075 863" fill="#403030" opacity="0.4"/>
  <polygon points="36.151 863 72.301 863 54.226 827 36.151 791 18.075 827 0 863 36.151 863" fill="#403030" opacity="0.4"/>
  <polygon points="108.151 863 144.301 863 126.226 827 108.151 791 90.075 827 72 863 108.151 863" fill="#703030" opacity="0.4"/>
  <polygon points="252.151 863 288.301 863 270.226 827 252.151 791 234.075 827 216 863 252.151 863" fill="#aa3030" opacity="0.4"/>
  <polygon points="324.151 863 360.301 863 342.226 827 324.151 791 306.075 827 288 863 324.151 863" fill="#aa3030" opacity="0.4"/>
  <polygon points="396.151 863 432.301 863 414.226 827 396.151 791 378.075 827 360 863 396.151 863" fill="#aa3030" opacity="0.4"/>
  <polygon points="612.151 863 648.301 863 630.226 827 612.151 791 594.075 827 576 863 612.151 863" fill="#aa3030" opacity="0.4"/>
  <polygon points="756.151 863 792.301 863 774.226 827 756.151 791 738.075 827 720 863 756.151 863" fill="#aa3030" opacity="0.4"/>
  <polygon points="828.151 863 864.301 863 846.226 827 828.151 791 810.075 827 792 863 828.151 863" fill="#aa3030" opacity="0.4"/>
  <polygon points="900.151 863 936.301 863 918.226 827 900.151 791 882.075 827 864 863 900.151 863" fill="#bc3030" opacity="0.4"/>
  <polygon points="971.925 1009 1008.075 1009 990 973 971.925 937 953.849 973 935.774 1009 971.925 1009" fill="#aa3030" opacity="0.4"/>
  <polygon points="1116.075 1009 1152.226 1009 1134.151 973 1116.075 937 1098 973 1079.925 1009 1116.075 1009" fill="#aa3030" opacity="0.4"/>
  <polygon points="1188.075 1009 1224.226 1009 1206.151 973 1188.075 937 1170 973 1151.925 1009 1188.075 1009" fill="#aa3030" opacity="0.4"/>
  <polygon points="1260.075 1009 1296.226 1009 1278.151 973 1260.075 937 1242 973 1223.925 1009 1260.075 1009" fill="#aa3030" opacity="0.4"/>
  <polygon points="1476.075 1009 1512.226 1009 1494.151 973 1476.075 937 1458 973 1439.925 1009 1476.075 1009" fill="#aa3030" opacity="0.4"/>
  <polygon points="36.151 1009 72.301 1009 54.226 973 36.151 937 18.075 973 0 1009 36.151 1009" fill="#403030" opacity="0.4"/>
  <polygon points="180.151 1009 216.301 1009 198.226 973 180.151 937 162.075 973 144 1009 180.151 1009" fill="#403030" opacity="0.4"/>
  <polygon points="324.151 1009 360.301 1009 342.226 973 324.151 937 306.075 973 288 1009 324.151 1009" fill="#aa3030" opacity="0.4"/>
  <polygon points="540.151 1009 576.301 1009 558.226 973 540.151 937 522.075 973 504 1009 540.151 1009" fill="#403030" opacity="0.4"/>
  <polygon points="612.151 1009 648.301 1009 630.226 973 612.151 937 594.075 973 576 1009 612.151 1009" fill="#aa3030" opacity="0.4"/>
  <polygon points="828.151 1009 864.301 1009 846.226 973 828.151 937 810.075 973 792 1009 828.151 1009" fill="#aa3030" opacity="0.4"/>
  <polygon points="971.925 1152 1008.075 1152 990 1116 971.925 1080 953.849 1116 935.774 1152 971.925 1152" fill="#703030" opacity="0.4"/>
  <polygon points="1404.075 1152 1440.226 1152 1422.151 1116 1404.075 1080 1386 1116 1367.925 1152 1404.075 1152" fill="#703030" opacity="0.4"/>
  <polygon points="1548.075 1152 1584.226 1152 1566.151 1116 1548.075 1080 1530 1116 1511.925 1152 1548.075 1152" fill="#703030" opacity="0.4"/>
  <polygon points="1692.075 1152 1728.226 1152 1710.151 1116 1692.075 1080 1674 1116 1655.925 1152 1692.075 1152" fill="#403030" opacity="0.4"/>
  <polygon points="396.151 1152 432.301 1152 414.226 1116 396.151 1080 378.075 1116 360 1152 396.151 1152" fill="#703030" opacity="0.4"/>
  <polygon points="468.151 1152 504.301 1152 486.226 1116 468.151 1080 450.075 1116 432 1152 468.151 1152" fill="#703030" opacity="0.4"/>
  <polygon points="540.151 1152 576.301 1152 558.226 1116 540.151 1080 522.075 1116 504 1152 540.151 1152" fill="#703030" opacity="0.4"/>
  <polygon points="900.151 1152 936.301 1152 918.226 1116 900.151 1080 882.075 1116 864 1152 900.151 1152" fill="#703030" opacity="0.4"/>
  <polygon points="971.925 575 1008.075 575 990 539 971.925 503 953.849 539 935.774 575 971.925 575" fill="#403030" opacity="0.4"/>
  <polygon points="1116.075 575 1152.226 575 1134.151 539 1116.075 503 1098 539 1079.925 575 1116.075 575" fill="#aa3030" opacity="0.4"/>
  <polygon points="1260.075 575 1296.226 575 1278.151 539 1260.075 503 1242 539 1223.925 575 1260.075 575" fill="#aa3030" opacity="0.4"/>
  <polygon points="1332.075 575 1368.226 575 1350.151 539 1332.075 503 1314 539 1295.925 575 1332.075 575" fill="#703030" opacity="0.4"/>
  <polygon points="1404.075 575 1440.226 575 1422.151 539 1404.075 503 1386 539 1367.925 575 1404.075 575" fill="#aa3030" opacity="0.4"/>
  <polygon points="1476.075 575 1512.226 575 1494.151 539 1476.075 503 1458 539 1439.925 575 1476.075 575" fill="#aa3030" opacity="0.4"/>
  <polygon points="1548.075 575 1584.226 575 1566.151 539 1548.075 503 1530 539 1511.925 575 1548.075 575" fill="#703030" opacity="0.4"/>
  <polygon points="1620.075 575 1656.226 575 1638.151 539 1620.075 503 1602 539 1583.925 575 1620.075 575" fill="#aa3030" opacity="0.4"/>
  <polygon points="324.151 575 360.301 575 342.226 539 324.151 503 306.075 539 288 575 324.151 575" fill="#703030" opacity="0.4"/>
  <polygon points="468.151 575 504.301 575 486.226 539 468.151 503 450.075 539 432 575 468.151 575" fill="#aa3030" opacity="0.4"/>
  <polygon points="540.151 575 576.301 575 558.226 539 540.151 503 522.075 539 504 575 540.151 575" fill="#703030" opacity="0.4"/>
  <polygon points="828.151 575 864.301 575 846.226 539 828.151 503 810.075 539 792 575 828.151 575" fill="#aa3030" opacity="0.4"/>
  <polygon points="1044.075 432 1080.226 432 1062.151 396 1044.075 360 1026 396 1007.925 432 1044.075 432" fill="#aa3030" opacity="0.4"/>
  <polygon points="1188.075 432 1224.226 432 1206.151 396 1188.075 360 1170 396 1151.925 432 1188.075 432" fill="#403030" opacity="0.4"/>
  <polygon points="1260.075 432 1296.226 432 1278.151 396 1260.075 360 1242 396 1223.925 432 1260.075 432" fill="#aa3030" opacity="0.4"/>
  <polygon points="1548.075 432 1584.226 432 1566.151 396 1548.075 360 1530 396 1511.925 432 1548.075 432" fill="#aa3030" opacity="0.4"/>
  <polygon points="1620.075 432 1656.226 432 1638.151 396 1620.075 360 1602 396 1583.925 432 1620.075 432" fill="#403030" opacity="0.4"/>
  <polygon points="1764.075 432 1800.226 432 1782.151 396 1764.075 360 1746 396 1727.925 432 1764.075 432" fill="#aa3030" opacity="0.4"/>
  <polygon points="252.151 432 288.301 432 270.226 396 252.151 360 234.075 396 216 432 252.151 432" fill="#aa3030" opacity="0.4"/>
  <polygon points="540.151 432 576.301 432 558.226 396 540.151 360 522.075 396 504 432 540.151 432" fill="#aa3030" opacity="0.4"/>
  <polygon points="684.151 432 720.301 432 702.226 396 684.151 360 666.075 396 648 432 684.151 432" fill="#aa3030" opacity="0.4"/>
  <polygon points="900.151 432 936.301 432 918.226 396 900.151 360 882.075 396 864 432 900.151 432" fill="#aa3030" opacity="0.4"/>
  <polygon points="1044.075 287 1080.226 287 1062.151 251 1044.075 215 1026 251 1007.925 287 1044.075 287" fill="#bc3030" opacity="0.4"/>
  <polygon points="1260.075 287 1296.226 287 1278.151 251 1260.075 215 1242 251 1223.925 287 1260.075 287" fill="#403030" opacity="0.4"/>
  <polygon points="1404.075 287 1440.226 287 1422.151 251 1404.075 215 1386 251 1367.925 287 1404.075 287" fill="#aa3030" opacity="0.4"/>
  <polygon points="1476.075 287 1512.226 287 1494.151 251 1476.075 215 1458 251 1439.925 287 1476.075 287" fill="#aa3030" opacity="0.4"/>
  <polygon points="1620.075 287 1656.226 287 1638.151 251 1620.075 215 1602 251 1583.925 287 1620.075 287" fill="#aa3030" opacity="0.4"/>
  <polygon points="1692.075 287 1728.226 287 1710.151 251 1692.075 215 1674 251 1655.925 287 1692.075 287" fill="#aa3030" opacity="0.4"/>
  <polygon points="1836.075 287 1872.226 287 1854.151 251 1836.075 215 1818 251 1799.925 287 1836.075 287" fill="#703030" opacity="0.4"/>
  <polygon points="396.151 287 432.301 287 414.226 251 396.151 215 378.075 251 360 287 396.151 287" fill="#703030" opacity="0.4"/>
  <polygon points="468.151 287 504.301 287 486.226 251 468.151 215 450.075 251 432 287 468.151 287" fill="#703030" opacity="0.4"/>
  <polygon points="612.151 287 648.301 287 630.226 251 612.151 215 594.075 251 576 287 612.151 287" fill="#aa3030" opacity="0.4"/>
  <polygon points="828.151 287 864.301 287 846.226 251 828.151 215 810.075 251 792 287 828.151 287" fill="#aa3030" opacity="0.4"/>
  <polygon points="900.151 287 936.301 287 918.226 251 900.151 215 882.075 251 864 287 900.151 287" fill="#aa3030" opacity="0.4"/>
  <polygon points="1260.075 144 1296.226 144 1278.151 108 1260.075 72 1242 108 1223.925 144 1260.075 144" fill="#703030" opacity="0.4"/>
  <polygon points="36.151 144 72.301 144 54.226 108 36.151 72 18.075 108 0 144 36.151 144" fill="#403030" opacity="0.4"/>
  <polygon points="180.151 144 216.301 144 198.226 108 180.151 72 162.075 108 144 144 180.151 144" fill="#703030" opacity="0.4"/>
  <polygon points="396.151 144 432.301 144 414.226 108 396.151 72 378.075 108 360 144 396.151 144" fill="#703030" opacity="0.4"/>
  <polygon points="468.151 144 504.301 144 486.226 108 468.151 72 450.075 108 432 144 468.151 144" fill="#703030" opacity="0.4"/>
  <polygon points="540.151 144 576.301 144 558.226 108 540.151 72 522.075 108 504 144 540.151 144" fill="#703030" opacity="0.4"/>
  <polygon points="612.151 144 648.301 144 630.226 108 612.151 72 594.075 108 576 144 612.151 144" fill="#703030" opacity="0.4"/>
  <polygon points="756.151 144 792.301 144 774.226 108 756.151 72 738.075 108 720 144 756.151 144" fill="#703030" opacity="0.4"/>
  <polygon points="900.151 144 936.301 144 918.226 108 900.151 72 882.075 108 864 144 900.151 144" fill="#403030" opacity="0.4"/>
</svg>
